<svg version="1" xmlns="http://www.w3.org/2000/svg" width="346.667" height="346.667" viewBox="0 0 260.000000 260.000000"><path d="M222 2.1c-9.9 2.5-32.5 6.5-48 8.4-19 2.4-18.9 2.4-28.5 3-4.9.3-10.1.8-11.5 1-1.4.2-7.4.7-13.5 1.1-6 .3-13 .8-15.5 1-2.5.2-19.8.7-38.5 1-18.7.3-34.3.8-34.7 1-.3.2-.9 0-1.2-.4-.5-.9-8.6-1.6-8.6-.8 0 .3 1.3 3.3 2.9 6.8 1.6 3.5 3.6 8 4.5 10.1l1.6 3.9 13.5-.4c7.4-.1 13.5-.2 13.5-.1 0 .2-9.8 7.5-11.9 9-.2.1 1.2 2 3.2 4.2 3.5 3.9 17.3 23.9 18.4 26.6.4 1.3-3.1 1.5-25.8 1.5H15.5v42H39V95h193v25h22.5V99l.1-21h-25.3c-13.9 0-25.3-.2-25.3-.5 0-1.6 19.2-27.6 24.3-32.9l2.8-3-2.8-1.6c-1.5-.9-6.9-4.1-12-7-5.1-3-9.1-5.5-9-5.6.6-.5 22.7-2.4 38.1-3.3 1.5-.1 1.6-.4.6-1.6-.7-.8-1.7-1.2-2.4-.8-.6.3-.8.3-.4-.2.4-.4-.8-2.6-2.7-4.7-1.8-2.2-4.6-6.9-6.2-10.4-1.5-3.5-3.2-6.4-3.8-6.3-.5.1-4.4 1-8.5 2zm-16 25.3c0 .3-.9 2.5-2 5.1-1.1 2.6-1.8 5.1-1.5 5.5.3.5.2 1-.3 1.2-.4.1-2.2 3.7-4.1 7.8-4.5 10.2-11.3 22.6-15 27.7L180 79h-42.3l2.9-2.3c1.5-1.2 5.2-3.6 8.2-5.3l5.3-3.1-8.6-12.8c-4.8-7.1-10.3-14.9-12.1-17.4-1.9-2.4-3.3-4.6-3.1-4.8.2-.2 3.3-.5 6.8-.8 3.5-.2 10.5-.7 15.4-1 10.3-.7 19.2-1.4 25-2 2.2-.2 8.3-.7 13.5-1 5.2-.4 9.6-.8 9.7-.9.4-.4 5.3-.5 5.3-.2zm-83 7c-.6.8-3.6 3.1-6.5 5.2-3 2-5.5 4-5.5 4.4 0 .4.9 1.5 2 2.5 4.5 4 21 30.8 19.8 32.1-.3.2-13.7.3-29.9.2l-29.4-.3 7.8-4.8c4.2-2.7 7.7-5 7.7-5.1 0-1.5-22.4-30-23.3-29.8-.8.2-.9 0-.2-.6 1.2-1.2 10.1-2 40.5-3.8 6.3-.3 11.6-.7 11.7-.8.1 0 1.6-.2 3.3-.3 2.6-.2 3 0 2 1.1z"/><path d="M107.5 99.7c-1.1 4.9-6.6 20.7-7.8 22.2-.9 1-6.9 1.2-31.9 1l-30.8-.4V142l26-.7c15.6-.4 26-.2 26 .3 0 1.5-14.5 20.3-22.2 28.8-13.1 14.3-35.4 31.1-55.6 41.6l-8.3 4.4 2.8 2.4c1.5 1.4 5.5 5.2 8.9 8.4l6.1 6 10.4-7.3c16-11.2 26.5-19.7 42.8-34.7 5.2-4.8 9.7-8.8 10.1-9 .3-.1 4.5 4.2 9.3 9.7C103 203 122.8 223 124.1 223c.5 0 .9.4.9.9 0 .6-3.9 2.2-8.7 3.6-16.9 5.2-46 9.9-68.8 11.2-6 .3-11.1.7-11.3.8-.1.1 1.1 1.7 2.7 3.6 2.8 3.1 7 10.7 8.5 15.2.5 1.6 1.5 1.7 9.3 1.3 4.8-.3 8.9-1 9.1-1.6.2-.6.7-.8 1.2-.5 1 .6 23.5-3.6 35.1-6.5 7.8-2 37.1-11.6 40.1-13.1 1.1-.6 4.7.2 11.2 2.6 12.7 4.6 27.2 8.8 34.6 10 1.4.2 3.6.7 5 1 4.7 1 17.4 2.9 26.5 4 1.7.2 7.3.7 12.6 1.1l9.5.7 4.2-6.9c2.3-3.8 5.8-9 7.8-11.6l3.6-4.8-14.9-.1c-8.1 0-18.2-.2-22.3-.5-11.2-.7-35.4-4.2-44.9-6.6l-8.5-2.1 4.4-3.6c17.6-14.3 32.8-30 43.8-45.7l6.4-8.9-61.7-.5-61.6-.5 3.8-5.1c2.1-2.9 5.8-8.4 8.3-12.4l4.5-7.1 60.3.3 60.2.3v-19.4l-8 .2c-4.4.1-8 .4-8 .7 0 .3-21.6.4-48 .2-26.4-.1-48-.4-48-.7 0-.2 2.3-3.9 5-8.2 4.4-6.8 4.8-7.9 3.3-8.5-8.7-3.3-21.9-8.4-22.5-8.6-.4-.2-1 .9-1.3 2.5zm72 86.8c-5.5 6.7-17 16.8-26.2 23.1l-8.1 5.6-8.4-6.3c-9-6.9-22.8-19.7-26-24.1l-1.9-2.8h74.2l-3.6 4.5z"/></svg>